<?xml version="1.0" encoding="UTF-8" standalone="no"?>
<svg
   xmlns:dc="http://purl.org/dc/elements/1.1/"
   xmlns:cc="http://creativecommons.org/ns#"
   xmlns:rdf="http://www.w3.org/1999/02/22-rdf-syntax-ns#"
   xmlns:svg="http://www.w3.org/2000/svg"
   xmlns="http://www.w3.org/2000/svg"
   xmlns:sodipodi="http://sodipodi.sourceforge.net/DTD/sodipodi-0.dtd"
   xmlns:inkscape="http://www.inkscape.org/namespaces/inkscape"
   height="428.23962pt"
   version="1.1"
   viewBox="0 0 511.36709 428.23962"
   width="511.3671pt"
   id="svg161"
   sodipodi:docname="reduced_grid.svg"
   inkscape:version="0.92.4 (5da689c313, 2019-01-14)">
  <sodipodi:namedview
     pagecolor="#ffffff"
     bordercolor="#666666"
     borderopacity="1"
     objecttolerance="10"
     gridtolerance="10"
     guidetolerance="10"
     inkscape:pageopacity="0"
     inkscape:pageshadow="2"
     inkscape:window-width="1920"
     inkscape:window-height="1017"
     id="namedview163"
     showgrid="false"
     inkscape:zoom="0.81944441"
     inkscape:cx="-1.5032284"
     inkscape:cy="352.78016"
     inkscape:window-x="-8"
     inkscape:window-y="108"
     inkscape:window-maximized="1"
     inkscape:current-layer="layer3" />
  <metadata
     id="metadata2">
    <rdf:RDF>
      <cc:Work>
        <dc:type
           rdf:resource="http://purl.org/dc/dcmitype/StillImage" />
        <dc:date>2021-08-13T18:54:35.326432</dc:date>
        <dc:format>image/svg+xml</dc:format>
        <dc:creator>
          <cc:Agent>
            <dc:title>Matplotlib v3.4.2, https://matplotlib.org/</dc:title>
          </cc:Agent>
        </dc:creator>
        <dc:title />
      </cc:Work>
    </rdf:RDF>
  </metadata>
  <defs
     id="defs6"
     style="stroke-linecap:butt;stroke-linejoin:round">
    <marker
       inkscape:isstock="true"
       style="overflow:visible;stroke-linecap:butt;stroke-linejoin:round"
       id="marker2180"
       refX="0"
       refY="0"
       orient="auto"
       inkscape:stockid="Arrow1Lend">
      <path
         inkscape:connector-curvature="0"
         transform="matrix(-0.8,0,0,-0.8,-10,0)"
         style="fill:#264653;fill-opacity:1;fill-rule:evenodd;stroke:#264653;stroke-width:1.00000003pt;stroke-linecap:butt;stroke-linejoin:round;stroke-opacity:1"
         d="M 0,0 5,-5 -12.5,0 5,5 Z"
         id="path2178" />
    </marker>
    <marker
       inkscape:isstock="true"
       style="overflow:visible;stroke-linecap:butt;stroke-linejoin:round"
       id="marker1252"
       refX="0"
       refY="0"
       orient="auto"
       inkscape:stockid="Arrow1Lstart">
      <path
         transform="matrix(0.8,0,0,0.8,10,0)"
         style="fill:#000000;fill-opacity:1;fill-rule:evenodd;stroke:#000000;stroke-width:1.00000003pt;stroke-linecap:butt;stroke-linejoin:round;stroke-opacity:1"
         d="M 0,0 5,-5 -12.5,0 5,5 Z"
         id="path1250"
         inkscape:connector-curvature="0" />
    </marker>
    <marker
       inkscape:stockid="DotL"
       orient="auto"
       refY="0"
       refX="0"
       id="DotL"
       style="overflow:visible;stroke-linecap:butt;stroke-linejoin:round"
       inkscape:isstock="true">
      <path
         id="path892"
         d="m -2.5,-1 c 0,2.76 -2.24,5 -5,5 -2.76,0 -5,-2.24 -5,-5 0,-2.76 2.24,-5 5,-5 2.76,0 5,2.24 5,5 z"
         style="fill:#2a9d8f;fill-opacity:1;fill-rule:evenodd;stroke:#2a9d8f;stroke-width:1.00000003pt;stroke-linecap:butt;stroke-linejoin:round;stroke-opacity:1"
         transform="matrix(0.8,0,0,0.8,5.92,0.8)"
         inkscape:connector-curvature="0" />
    </marker>
    <style
       type="text/css"
       id="style4">*{stroke-linecap:butt;stroke-linejoin:round;}</style>
    <marker
       inkscape:stockid="Arrow1Lstart"
       orient="auto"
       refY="0"
       refX="0"
       id="Arrow1Lstart-6-8"
       style="overflow:visible;stroke-linecap:butt;stroke-linejoin:round"
       inkscape:isstock="true"
       inkscape:collect="always">
      <path
         id="path831-8-4"
         d="M 0,0 5,-5 -12.5,0 5,5 Z"
         style="fill:#264653;fill-opacity:1;fill-rule:evenodd;stroke:#264653;stroke-width:1.00000003pt;stroke-linecap:butt;stroke-linejoin:round;stroke-opacity:1"
         transform="matrix(0.8,0,0,0.8,10,0)"
         inkscape:connector-curvature="0" />
    </marker>
  </defs>
  <g
     inkscape:groupmode="layer"
     id="layer3"
     inkscape:label="Top"
     style="display:inline;stroke-linecap:butt;stroke-linejoin:round"
     transform="translate(-38.67749,-80.201472)">
    <rect
       style="fill:#f4f1de;fill-opacity:1;stroke:#264653;stroke-width:2.68440938;stroke-linecap:butt;stroke-linejoin:round;stroke-miterlimit:4;stroke-dasharray:none;stroke-opacity:1"
       id="rect1114"
       width="422.45773"
       height="422.45773"
       x="82.85096"
       y="84.641182" />
    <path
       transform="translate(3.4237214e-6,1.2706458e-6)"
       style="display:inline;fill:none;stroke:#264653;stroke-width:1.54275;stroke-linecap:butt;stroke-linejoin:miter;stroke-miterlimit:4;stroke-dasharray:none;stroke-opacity:1;marker-start:url(#Arrow1Lstart-6-8)"
       d="M 323.07011,282.86898 265.15856,123.75831"
       id="path829-7-9"
       inkscape:connector-curvature="0" />
    <path
       style="display:inline;fill:none;stroke:#264653;stroke-width:1.5397501;stroke-linecap:butt;stroke-linejoin:miter;stroke-miterlimit:4;stroke-dasharray:none;stroke-opacity:1;marker-end:url(#marker2180)"
       d="M 94.856306,487.62023 56.850817,383.20101"
       id="path829-7-2"
       inkscape:connector-curvature="0" />
    <path
       transform="translate(3.4237214e-6,1.2706458e-6)"
       style="display:inline;fill:none;stroke:#264653;stroke-width:2.25600004;stroke-linecap:butt;stroke-linejoin:miter;stroke-miterlimit:4;stroke-dasharray:4.51200012, 4.51200012;stroke-dashoffset:0;stroke-opacity:1"
       d="M 82.85096,507.09891 39.73746,388.64554"
       id="path829-7"
       inkscape:connector-curvature="0" />
    <path
       transform="translate(3.4237214e-6,1.2706458e-6)"
       style="display:inline;fill:none;stroke:#264653;stroke-width:2.33253837;stroke-linecap:butt;stroke-linejoin:miter;stroke-miterlimit:4;stroke-dasharray:4.66507669, 4.66507669;stroke-dashoffset:0;stroke-opacity:1"
       d="M 548.94865,203.07244 504.37245,80.600358"
       id="path829-7-20"
       inkscape:connector-curvature="0" />
  </g>
  <g
     inkscape:groupmode="layer"
     id="layer1"
     inkscape:label="Base"
     style="display:inline;stroke-linecap:butt;stroke-linejoin:round"
     transform="translate(-38.67749,-80.201472)">
    <path
       style="fill:#2a9d8f;fill-opacity:1;stroke:#8ecae6;stroke-width:3.8212502;stroke-linecap:butt;stroke-linejoin:miter;stroke-miterlimit:4;stroke-dasharray:none;stroke-opacity:1"
       d="M 40.442936,388.17956 548.98461,203.08553"
       id="path1118"
       inkscape:connector-curvature="0" />
    <path
       inkscape:connector-curvature="0"
       style="display:inline;fill:#000000;fill-opacity:1;stroke:#000000;stroke-width:1.24196494;stroke-linecap:butt;stroke-linejoin:round;stroke-opacity:1"
       id="use17"
       d="m 41.74413,391.14912 c 1.061395,-0.38631 1.965258,-1.07062 2.512542,-1.90221 0.547262,-0.8316 0.69326,-1.74257 0.405821,-2.5323 -0.287436,-0.78972 -0.984842,-1.39373 -1.938604,-1.67899 -0.953778,-0.28524 -2.086043,-0.22846 -3.147438,0.15785 -1.061395,0.38633 -1.965277,1.07065 -2.512544,1.90222 -0.547265,0.83158 -0.69326,1.74256 -0.405823,2.53229 0.287436,0.78973 0.984839,1.39373 1.938606,1.67899 0.953762,0.28526 2.086045,0.22847 3.14744,-0.15785 z" />
    <path
       inkscape:connector-curvature="0"
       style="display:inline;fill:#000000;fill-opacity:1;stroke:#000000;stroke-width:1.24196494;stroke-linecap:butt;stroke-linejoin:round;stroke-opacity:1"
       id="use17-8"
       d="m 550.1577,206.24107 c 1.0614,-0.38633 1.96527,-1.07063 2.51255,-1.90222 0.54724,-0.83159 0.69325,-1.74256 0.40581,-2.5323 -0.28743,-0.78972 -0.98485,-1.39372 -1.93859,-1.67899 -0.95379,-0.28523 -2.08604,-0.22847 -3.14745,0.15786 -1.06138,0.38631 -1.96528,1.07064 -2.51255,1.90221 -0.54727,0.83159 -0.69326,1.74257 -0.40582,2.53229 0.28745,0.78973 0.98484,1.39373 1.93861,1.67899 0.95377,0.28527 2.08606,0.22847 3.14744,-0.15784 z" />
    <path
       inkscape:connector-curvature="0"
       style="display:inline;fill:#000000;fill-opacity:1;stroke:#000000;stroke-width:1.24196494;stroke-linecap:butt;stroke-linejoin:round;stroke-opacity:1"
       id="use17-7"
       d="m 295.8381,298.92073 c 1.06138,-0.38632 1.96525,-1.07062 2.51253,-1.9022 0.54727,-0.8316 0.69325,-1.74256 0.40582,-2.5323 -0.28744,-0.78973 -0.98484,-1.39374 -1.9386,-1.67899 -0.95378,-0.28524 -2.08604,-0.22848 -3.14743,0.15784 -1.0614,0.38632 -1.9653,1.07064 -2.51255,1.90222 -0.54726,0.83159 -0.69327,1.74258 -0.40584,2.53229 0.28744,0.78973 0.98486,1.39374 1.93863,1.67899 0.95374,0.28526 2.08604,0.22846 3.14744,-0.15785 z" />
    <path
       inkscape:connector-curvature="0"
       style="display:inline;fill:#000000;fill-opacity:1;stroke:#000000;stroke-width:1.24196494;stroke-linecap:butt;stroke-linejoin:round;stroke-opacity:1"
       id="use17-4"
       d="m 164.34768,346.32709 c 1.0614,-0.38631 1.96525,-1.07062 2.51255,-1.90221 0.54725,-0.83159 0.69325,-1.74256 0.40581,-2.53229 -0.28744,-0.78973 -0.98484,-1.39374 -1.9386,-1.679 -0.95378,-0.28523 -2.08603,-0.22846 -3.14743,0.15786 -1.06139,0.38631 -1.96529,1.07064 -2.51255,1.90222 -0.54727,0.83158 -0.69326,1.74256 -0.40582,2.53228 0.28744,0.78973 0.98482,1.39374 1.93859,1.679 0.95377,0.28525 2.08606,0.22846 3.14745,-0.15786 z" />
    <path
       inkscape:connector-curvature="0"
       style="display:inline;fill:#000000;fill-opacity:1;stroke:#000000;stroke-width:1.24196494;stroke-linecap:butt;stroke-linejoin:round;stroke-opacity:1"
       id="use17-7-0"
       d="m 418.44162,254.09871 c 1.06139,-0.38631 1.96527,-1.07061 2.51254,-1.9022 0.54726,-0.8316 0.69326,-1.74258 0.40583,-2.53231 -0.28744,-0.78971 -0.98485,-1.39374 -1.9386,-1.67898 -0.95379,-0.28525 -2.08604,-0.22847 -3.14744,0.15784 -1.0614,0.38632 -1.96529,1.07064 -2.51255,1.90223 -0.54726,0.83158 -0.69326,1.74257 -0.40583,2.53229 0.28744,0.78972 0.98484,1.39373 1.93862,1.67899 0.95376,0.28525 2.08604,0.22846 3.14743,-0.15786 z" />
    <path
       inkscape:connector-curvature="0"
       style="display:inline;fill:#000000;fill-opacity:1;stroke:#000000;stroke-width:1.24196494;stroke-linecap:butt;stroke-linejoin:round;stroke-opacity:1"
       id="use17-9"
       d="m 101.23183,369.29362 c 1.0614,-0.38632 1.96527,-1.07062 2.51255,-1.90221 0.54725,-0.83159 0.69325,-1.74256 0.40582,-2.5323 -0.28744,-0.78973 -0.98486,-1.39373 -1.9386,-1.67899 -0.95378,-0.28524 -2.08605,-0.22847 -3.14745,0.15785 -1.06139,0.38632 -1.96527,1.07064 -2.51253,1.90221 -0.54728,0.83159 -0.69327,1.74257 -0.40584,2.5323 0.28744,0.78972 0.98484,1.39373 1.93862,1.67898 0.95375,0.28527 2.08604,0.22848 3.14743,-0.15784 z" />
    <path
       inkscape:connector-curvature="0"
       style="display:inline;fill:#000000;fill-opacity:1;stroke:#000000;stroke-width:1.24196494;stroke-linecap:butt;stroke-linejoin:round;stroke-opacity:1"
       id="use17-4-0"
       d="m 226.11139,323.87508 c 1.0614,-0.38633 1.96526,-1.07064 2.51255,-1.90223 0.54723,-0.83159 0.69323,-1.74256 0.40579,-2.53228 -0.28743,-0.78974 -0.98484,-1.39374 -1.93858,-1.679 -0.95378,-0.28525 -2.08603,-0.22847 -3.14744,0.15786 -1.06141,0.3863 -1.96529,1.07063 -2.51255,1.9022 -0.54727,0.83159 -0.69327,1.74258 -0.40584,2.5323 0.28744,0.78973 0.98485,1.39373 1.93862,1.67899 0.95376,0.28526 2.08605,0.22846 3.14745,-0.15784 z" />
    <path
       inkscape:connector-curvature="0"
       style="display:inline;fill:#000000;fill-opacity:1;stroke:#000000;stroke-width:1.24196494;stroke-linecap:butt;stroke-linejoin:round;stroke-opacity:1"
       id="use17-7-0-4"
       d="m 361.02401,274.9856 c 1.06139,-0.38632 1.96525,-1.07063 2.51253,-1.9022 0.54726,-0.8316 0.69325,-1.74257 0.40581,-2.5323 -0.28744,-0.78973 -0.98484,-1.39374 -1.93859,-1.67899 -0.95378,-0.28526 -2.08605,-0.22848 -3.14744,0.15784 -1.06139,0.38632 -1.96528,1.07064 -2.51254,1.90222 -0.54727,0.83158 -0.69327,1.74257 -0.40583,2.53229 0.28743,0.78973 0.98485,1.39374 1.93861,1.67899 0.95375,0.28526 2.08604,0.22847 3.14745,-0.15785 z" />
    <path
       inkscape:connector-curvature="0"
       style="display:inline;fill:#000000;fill-opacity:1;stroke:#000000;stroke-width:1.24196494;stroke-linecap:butt;stroke-linejoin:round;stroke-opacity:1"
       id="use17-7-0-47"
       d="m 488.90288,228.09392 c 1.06139,-0.38632 1.96526,-1.07064 2.51254,-1.90221 0.54726,-0.83159 0.69326,-1.74257 0.40583,-2.53229 -0.28744,-0.78974 -0.98486,-1.39375 -1.9386,-1.67899 -0.95378,-0.28527 -2.08605,-0.22848 -3.14746,0.15784 -1.06139,0.38632 -1.96527,1.07063 -2.51253,1.90221 -0.54727,0.83158 -0.69326,1.74257 -0.40583,2.5323 0.28744,0.78973 0.98484,1.39373 1.93861,1.67899 0.95376,0.28525 2.08605,0.22847 3.14744,-0.15785 z" />
    <circle
       style="fill:#2a9d8f;fill-opacity:1;stroke:#264653;stroke-width:0.66897637;stroke-linecap:butt;stroke-linejoin:round;stroke-miterlimit:4;stroke-dasharray:none;stroke-dashoffset:0;stroke-opacity:1;paint-order:stroke fill markers"
       id="path1231"
       cx="264.33521"
       cy="123.21418"
       r="5.8155675" />
    <circle
       style="display:inline;fill:#2a9d8f;fill-opacity:1;stroke:#264653;stroke-width:0.66897637;stroke-linecap:butt;stroke-linejoin:round;stroke-miterlimit:4;stroke-dasharray:none;stroke-dashoffset:0;stroke-opacity:1;paint-order:stroke fill markers"
       id="path1231-8"
       cx="96.309044"
       cy="487.49933"
       r="5.8155675" />
    <path
       inkscape:connector-curvature="0"
       style="display:inline;fill:#000000;fill-opacity:1;stroke:#000000;stroke-width:1.30422556;stroke-linecap:butt;stroke-linejoin:round;stroke-opacity:1"
       id="use17-7-1"
       d="m 295.8381,298.92073 c 1.11459,-0.40568 2.06377,-1.12429 2.63849,-1.99756 0.5747,-0.87329 0.728,-1.82992 0.42616,-2.65924 -0.30185,-0.82932 -1.03421,-1.46362 -2.03578,-1.76316 -1.0016,-0.29955 -2.19062,-0.23993 -3.30522,0.16575 -1.11461,0.40569 -2.06382,1.12431 -2.6385,1.99758 -0.5747,0.87327 -0.72802,1.82993 -0.42618,2.65924 0.30185,0.82932 1.03422,1.4636 2.0358,1.76316 1.00156,0.29955 2.19062,0.23991 3.30523,-0.16577 z" />
  </g>
  <defs
     id="defs159">
    <clipPath
       id="p11799d0465"
       style="stroke-linecap:butt;stroke-linejoin:round">
      <rect
         height="423.35999"
         width="423.35999"
         x="4.3200002"
         y="4.3200002"
         id="rect156"
         style="stroke-linecap:butt;stroke-linejoin:round" />
    </clipPath>
  </defs>
</svg>
