<?xml version="1.0" encoding="UTF-8" standalone="no"?>
<svg
   xmlns:dc="http://purl.org/dc/elements/1.1/"
   xmlns:cc="http://creativecommons.org/ns#"
   xmlns:rdf="http://www.w3.org/1999/02/22-rdf-syntax-ns#"
   xmlns:svg="http://www.w3.org/2000/svg"
   xmlns="http://www.w3.org/2000/svg"
   xmlns:sodipodi="http://sodipodi.sourceforge.net/DTD/sodipodi-0.dtd"
   xmlns:inkscape="http://www.inkscape.org/namespaces/inkscape"
   height="593.16949pt"
   version="1.1"
   viewBox="0 0 592.60559 593.16949"
   width="592.60559pt"
   id="svg161"
   sodipodi:docname="reduced_grid.svg"
   inkscape:version="0.92.4 (5da689c313, 2019-01-14)">
  <sodipodi:namedview
     pagecolor="#ffffff"
     bordercolor="#666666"
     borderopacity="1"
     objecttolerance="10"
     gridtolerance="10"
     guidetolerance="10"
     inkscape:pageopacity="0"
     inkscape:pageshadow="2"
     inkscape:window-width="1920"
     inkscape:window-height="1017"
     id="namedview163"
     showgrid="false"
     inkscape:zoom="0.81944441"
     inkscape:cx="33.644695"
     inkscape:cy="558.92132"
     inkscape:window-x="-8"
     inkscape:window-y="108"
     inkscape:window-maximized="1"
     inkscape:current-layer="layer3" />
  <metadata
     id="metadata2">
    <rdf:RDF>
      <cc:Work>
        <dc:type
           rdf:resource="http://purl.org/dc/dcmitype/StillImage" />
        <dc:date>2021-08-13T18:54:35.326432</dc:date>
        <dc:format>image/svg+xml</dc:format>
        <dc:creator>
          <cc:Agent>
            <dc:title>Matplotlib v3.4.2, https://matplotlib.org/</dc:title>
          </cc:Agent>
        </dc:creator>
        <dc:title></dc:title>
      </cc:Work>
    </rdf:RDF>
  </metadata>
  <defs
     id="defs6"
     style="stroke-linecap:butt;stroke-linejoin:round">
    <style
       type="text/css"
       id="style4">*{stroke-linecap:butt;stroke-linejoin:round;}</style>
  </defs>
  <g
     inkscape:groupmode="layer"
     id="layer3"
     inkscape:label="Top"
     style="display:inline;stroke-linecap:butt;stroke-linejoin:round">
    <rect
       style="fill-opacity:1;stroke:#000000;stroke-width:0.74065554;stroke-linecap:butt;stroke-linejoin:round;stroke-opacity:1;fill:#ffffff"
       id="rect1114"
       width="422.45773"
       height="422.45773"
       x="82.85096"
       y="84.641182" />
  </g>
  <g
     inkscape:groupmode="layer"
     id="layer1"
     inkscape:label="Base"
     style="display:inline;stroke-linecap:butt;stroke-linejoin:round">
    <rect
       style="fill:#8abc80;fill-opacity:1;stroke:#000000;stroke-width:0.73014086;stroke-linecap:butt;stroke-linejoin:round"
       id="rect4911"
       width="302.94659"
       height="302.94659"
       x="259.90622"
       y="-81.217888"
       transform="rotate(35.5)" />
    <path
       style="fill:#f6be81;fill-opacity:1;stroke:#f6be81;stroke-width:2.8499999;stroke-linecap:butt;stroke-linejoin:miter;stroke-miterlimit:4;stroke-dasharray:none;stroke-opacity:1"
       d="M 82.372883,295.71186 H 505.22036"
       id="path1118"
       inkscape:connector-curvature="0" />
    <path
       inkscape:connector-curvature="0"
       style="display:inline;fill:#000000;fill-opacity:1;stroke:#000000;stroke-width:1.125;stroke-linecap:butt;stroke-linejoin:round;stroke-opacity:1"
       id="use17"
       d="m 82.534678,299.10957 c 0.88254,0 1.72905,-0.35064 2.35311,-0.97469 0.624045,-0.62406 0.974685,-1.47057 0.974685,-2.35311 0,-0.88254 -0.35064,-1.72906 -0.974685,-2.35311 -0.62406,-0.62404 -1.47057,-0.97468 -2.35311,-0.97468 -0.88254,0 -1.729065,0.35064 -2.35311,0.97468 -0.624045,0.62405 -0.974685,1.47057 -0.974685,2.35311 0,0.88254 0.35064,1.72905 0.974685,2.35311 0.624045,0.62405 1.47057,0.97469 2.35311,0.97469 z" />
    <path
       inkscape:connector-curvature="0"
       style="display:inline;fill:#000000;fill-opacity:1;stroke:#000000;stroke-width:1.125;stroke-linecap:butt;stroke-linejoin:round;stroke-opacity:1"
       id="use17-8"
       d="m 505.2384,299.24708 c 0.88254,0 1.72905,-0.35064 2.35311,-0.97469 0.62404,-0.62406 0.97468,-1.47057 0.97468,-2.35311 0,-0.88254 -0.35064,-1.72906 -0.97468,-2.35311 -0.62406,-0.62404 -1.47057,-0.97468 -2.35311,-0.97468 -0.88254,0 -1.72907,0.35064 -2.35311,0.97468 -0.62405,0.62405 -0.97469,1.47057 -0.97469,2.35311 0,0.88254 0.35064,1.72905 0.97469,2.35311 0.62404,0.62405 1.47057,0.97469 2.35311,0.97469 z" />
    <path
       inkscape:connector-curvature="0"
       style="display:inline;fill:#000000;fill-opacity:1;stroke:#000000;stroke-width:1.125;stroke-linecap:butt;stroke-linejoin:round;stroke-opacity:1"
       id="use17-7"
       d="m 293.7434,299.36046 c 0.88254,0 1.72905,-0.35064 2.35311,-0.97468 0.62404,-0.62406 0.97468,-1.47057 0.97468,-2.35311 0,-0.88254 -0.35064,-1.72907 -0.97468,-2.35311 -0.62406,-0.62405 -1.47057,-0.97469 -2.35311,-0.97469 -0.88254,0 -1.72907,0.35064 -2.35311,0.97469 -0.62405,0.62404 -0.97469,1.47057 -0.97469,2.35311 0,0.88254 0.35064,1.72905 0.97469,2.35311 0.62404,0.62404 1.47057,0.97468 2.35311,0.97468 z" />
    <path
       inkscape:connector-curvature="0"
       style="display:inline;fill:#000000;fill-opacity:1;stroke:#000000;stroke-width:1.125;stroke-linecap:butt;stroke-linejoin:round;stroke-opacity:1"
       id="use17-4"
       d="m 184.53125,298.9142 c 0.88254,0 1.72905,-0.35064 2.35311,-0.97469 0.62404,-0.62406 0.97468,-1.47057 0.97468,-2.35311 0,-0.88254 -0.35064,-1.72906 -0.97468,-2.35311 -0.62406,-0.62404 -1.47057,-0.97468 -2.35311,-0.97468 -0.88254,0 -1.72907,0.35064 -2.35311,0.97468 -0.62405,0.62405 -0.97469,1.47057 -0.97469,2.35311 0,0.88254 0.35064,1.72905 0.97469,2.35311 0.62404,0.62405 1.47057,0.97469 2.35311,0.97469 z" />
    <path
       inkscape:connector-curvature="0"
       style="display:inline;fill:#000000;fill-opacity:1;stroke:#000000;stroke-width:1.125;stroke-linecap:butt;stroke-linejoin:round;stroke-opacity:1"
       id="use17-7-0"
       d="m 395.73996,299.16509 c 0.88254,0 1.72905,-0.35064 2.35311,-0.97468 0.62404,-0.62406 0.97468,-1.47057 0.97468,-2.35311 0,-0.88254 -0.35064,-1.72907 -0.97468,-2.35311 -0.62406,-0.62405 -1.47057,-0.97469 -2.35311,-0.97469 -0.88254,0 -1.72907,0.35064 -2.35311,0.97469 -0.62405,0.62404 -0.97469,1.47057 -0.97469,2.35311 0,0.88254 0.35064,1.72905 0.97469,2.35311 0.62404,0.62404 1.47057,0.97468 2.35311,0.97468 z" />
    <path
       inkscape:connector-curvature="0"
       style="display:inline;fill:#000000;fill-opacity:1;stroke:#000000;stroke-width:1.125;stroke-linecap:butt;stroke-linejoin:round;stroke-opacity:1"
       id="use17-9"
       d="m 132.05258,298.90851 c 0.88254,0 1.72905,-0.35064 2.35311,-0.97469 0.62404,-0.62406 0.97468,-1.47057 0.97468,-2.35311 0,-0.88254 -0.35064,-1.72906 -0.97468,-2.35311 -0.62406,-0.62404 -1.47057,-0.97468 -2.35311,-0.97468 -0.88254,0 -1.72907,0.35064 -2.35311,0.97468 -0.62405,0.62405 -0.97469,1.47057 -0.97469,2.35311 0,0.88254 0.35064,1.72905 0.97469,2.35311 0.62404,0.62405 1.47057,0.97469 2.35311,0.97469 z" />
    <path
       inkscape:connector-curvature="0"
       style="display:inline;fill:#000000;fill-opacity:1;stroke:#000000;stroke-width:1.125;stroke-linecap:butt;stroke-linejoin:round;stroke-opacity:1"
       id="use17-4-0"
       d="m 235.87966,298.94195 c 0.88254,0 1.72905,-0.35064 2.35311,-0.97469 0.62403,-0.62406 0.97467,-1.47057 0.97467,-2.35311 0,-0.88254 -0.35064,-1.72906 -0.97467,-2.35311 -0.62406,-0.62404 -1.47057,-0.97468 -2.35311,-0.97468 -0.88254,0 -1.72908,0.35064 -2.35311,0.97468 -0.62406,0.62405 -0.9747,1.47057 -0.9747,2.35311 0,0.88254 0.35064,1.72905 0.9747,2.35311 0.62403,0.62405 1.47057,0.97469 2.35311,0.97469 z" />
    <path
       inkscape:connector-curvature="0"
       style="display:inline;fill:#000000;fill-opacity:1;stroke:#000000;stroke-width:1.125;stroke-linecap:butt;stroke-linejoin:round;stroke-opacity:1"
       id="use17-7-0-4"
       d="m 348.00081,299.15382 c 0.88254,0 1.72905,-0.35064 2.35311,-0.97468 0.62404,-0.62406 0.97468,-1.47057 0.97468,-2.35311 0,-0.88254 -0.35064,-1.72907 -0.97468,-2.35311 -0.62406,-0.62405 -1.47057,-0.97469 -2.35311,-0.97469 -0.88254,0 -1.72907,0.35064 -2.35311,0.97469 -0.62405,0.62404 -0.97469,1.47057 -0.97469,2.35311 0,0.88254 0.35064,1.72905 0.97469,2.35311 0.62404,0.62404 1.47057,0.97468 2.35311,0.97468 z" />
    <path
       inkscape:connector-curvature="0"
       style="display:inline;fill:#000000;fill-opacity:1;stroke:#000000;stroke-width:1.125;stroke-linecap:butt;stroke-linejoin:round;stroke-opacity:1"
       id="use17-7-0-47"
       d="m 454.42375,298.81083 c 0.88254,0 1.72905,-0.35064 2.35311,-0.97468 0.62404,-0.62406 0.97468,-1.47057 0.97468,-2.35311 0,-0.88254 -0.35064,-1.72907 -0.97468,-2.35311 -0.62406,-0.62405 -1.47057,-0.97469 -2.35311,-0.97469 -0.88254,0 -1.72907,0.35064 -2.35311,0.97469 -0.62405,0.62404 -0.97469,1.47057 -0.97469,2.35311 0,0.88254 0.35064,1.72905 0.97469,2.35311 0.62404,0.62404 1.47057,0.97468 2.35311,0.97468 z" />
  </g>
  <defs
     id="defs159">
    <clipPath
       id="p11799d0465"
       style="stroke-linecap:butt;stroke-linejoin:round">
      <rect
         height="423.35999"
         width="423.35999"
         x="4.3200002"
         y="4.3200002"
         id="rect156"
         style="stroke-linecap:butt;stroke-linejoin:round" />
    </clipPath>
  </defs>
</svg>
